<?xml version="1.0" encoding="iso-8859-1"?>
<!-- Uploaded to: SVG Repo, www.svgrepo.com, Generator: SVG Repo Mixer Tools -->
<!DOCTYPE svg PUBLIC "-//W3C//DTD SVG 1.1//EN" "http://www.w3.org/Graphics/SVG/1.1/DTD/svg11.dtd">
<svg fill="#000000" version="1.1" id="Capa_1" xmlns="http://www.w3.org/2000/svg" xmlns:xlink="http://www.w3.org/1999/xlink" 
	 width="800px" height="800px" viewBox="0 0 612 612" xml:space="preserve">
<g>
	<path d="M576,93.601H36c-19.886,0-36,16.1-36,36v352.799c0,19.887,16.114,36,36,36h540c19.886,0,36-16.113,36-36V129.601
		C612,109.701,595.872,93.601,576,93.601z M540,446.403H72V165.601h468V446.403L540,446.403z M382.579,206.296
		c0-8.784,7.114-15.912,15.898-15.912c8.798,0,15.912,7.128,15.912,15.912c0,8.77-7.114,15.898-15.912,15.898
		C389.693,222.194,382.579,215.081,382.579,206.296z M431.898,206.296c0-8.784,7.113-15.912,15.884-15.912
		c8.812,0,15.926,7.128,15.926,15.912c0,8.77-7.113,15.898-15.926,15.898C439.012,222.194,431.898,215.081,431.898,206.296z
		 M481.205,206.296c0-8.784,7.113-15.912,15.898-15.912c8.798,0,15.911,7.128,15.911,15.912c0,8.77-7.113,15.898-15.911,15.898
		C488.318,222.194,481.205,215.081,481.205,206.296z M315.058,251.943l-0.086-2.26c-0.114-3.845-1.785-7.489-4.608-10.065
		c-2.838-2.621-6.552-3.945-10.44-3.757c-1.483,0.085-2.995,0.159-4.506,0.159c-25.704,0-50.804-12.023-70.676-33.868
		c-5.414-5.947-15.71-5.947-21.124,0c-19.872,21.844-44.972,33.868-70.676,33.868c-1.526,0-3.037-0.071-4.537-0.159
		c-3.817-0.188-7.589,1.152-10.427,3.757c-2.823,2.607-4.478,6.234-4.594,10.065l-0.071,2.26c-0.072,1.958-0.159,3.903-0.159,5.861
		c0,74.117,32.948,127.814,95.27,155.289c1.828,0.82,3.802,1.225,5.761,1.225s3.931-0.404,5.761-1.225
		c62.324-27.475,95.27-81.174,95.27-155.289C315.217,255.846,315.129,253.902,315.058,251.943z M250.416,324.894
		c0,16.271-11.044,26.18-27.446,28.225v6.523c0,4.867-3.945,8.799-8.784,8.799c-4.853,0-8.798-3.932-8.798-8.799v-7.258
		c-8.352-1.57-16.458-4.811-23.615-9.938c-2.246-1.568-3.831-4.492-3.831-7.646c0-5.285,4.219-9.359,9.504-9.359
		c2.636,0,4.478,0.908,5.804,1.844c7,5.141,14.66,8.309,23.631,8.309c8.323,0,13.35-3.295,13.35-8.697v-0.287
		c0-5.127-3.183-7.777-18.634-11.736c-18.619-4.738-30.628-9.907-30.628-28.267v-0.259c0-14.284,9.835-24.395,24.409-27.087v-6.897
		c0-4.854,3.931-8.784,8.798-8.784c4.854,0,8.785,3.931,8.785,8.784v6.954c7.258,1.195,13.839,3.644,19.655,7.358
		c2.246,1.31,4.492,4.076,4.492,8.05c0,5.271-4.219,9.374-9.504,9.374c-2.001,0-3.572-0.533-5.155-1.469
		c-6.74-3.946-13.074-6.206-19.425-6.206c-7.791,0-11.881,3.558-11.881,8.05v0.288c0,6.063,3.959,8.05,19.943,12.14
		c18.735,4.882,29.305,11.62,29.305,27.719v0.273H250.416L250.416,324.894z"/>
</g>
</svg>